<svg xmlns="http://www.w3.org/2000/svg" viewBox="0 0 1200 900" font-family="'Segoe UI', system-ui, -apple-system, sans-serif">
  <defs>
    <linearGradient id="bgGrad" x1="0%" y1="0%" x2="100%" y2="100%">
      <stop offset="0%" style="stop-color:#0f172a"/>
      <stop offset="100%" style="stop-color:#1e293b"/>
    </linearGradient>
    <linearGradient id="scenarioGrad" x1="0%" y1="0%" x2="0%" y2="100%">
      <stop offset="0%" style="stop-color:#3b82f6"/>
      <stop offset="100%" style="stop-color:#2563eb"/>
    </linearGradient>
    <linearGradient id="envGrad" x1="0%" y1="0%" x2="0%" y2="100%">
      <stop offset="0%" style="stop-color:#1e293b"/>
      <stop offset="100%" style="stop-color:#0f172a"/>
    </linearGradient>
    <linearGradient id="sciGrad" x1="0%" y1="0%" x2="0%" y2="100%">
      <stop offset="0%" style="stop-color:#8b5cf6"/>
      <stop offset="100%" style="stop-color:#7c3aed"/>
    </linearGradient>
    <linearGradient id="lmGrad" x1="0%" y1="0%" x2="0%" y2="100%">
      <stop offset="0%" style="stop-color:#06b6d4"/>
      <stop offset="100%" style="stop-color:#0891b2"/>
    </linearGradient>
    <linearGradient id="judgeGrad" x1="0%" y1="0%" x2="0%" y2="100%">
      <stop offset="0%" style="stop-color:#f59e0b"/>
      <stop offset="100%" style="stop-color:#d97706"/>
    </linearGradient>
    <linearGradient id="rewardGrad" x1="0%" y1="0%" x2="0%" y2="100%">
      <stop offset="0%" style="stop-color:#10b981"/>
      <stop offset="100%" style="stop-color:#059669"/>
    </linearGradient>
    <linearGradient id="trainGrad" x1="0%" y1="0%" x2="0%" y2="100%">
      <stop offset="0%" style="stop-color:#ef4444"/>
      <stop offset="100%" style="stop-color:#dc2626"/>
    </linearGradient>
    <linearGradient id="serveGrad" x1="0%" y1="0%" x2="0%" y2="100%">
      <stop offset="0%" style="stop-color:#6366f1"/>
      <stop offset="100%" style="stop-color:#4f46e5"/>
    </linearGradient>
    <linearGradient id="uiGrad" x1="0%" y1="0%" x2="0%" y2="100%">
      <stop offset="0%" style="stop-color:#ec4899"/>
      <stop offset="100%" style="stop-color:#db2777"/>
    </linearGradient>
    <filter id="shadow" x="-4%" y="-4%" width="108%" height="116%">
      <feDropShadow dx="0" dy="3" stdDeviation="6" flood-color="#000" flood-opacity="0.35"/>
    </filter>
    <filter id="glow" x="-20%" y="-20%" width="140%" height="140%">
      <feGaussianBlur stdDeviation="3" result="blur"/>
      <feMerge><feMergeNode in="blur"/><feMergeNode in="SourceGraphic"/></feMerge>
    </filter>
    <marker id="arrowWhite" markerWidth="8" markerHeight="6" refX="8" refY="3" orient="auto">
      <path d="M0,0 L8,3 L0,6" fill="none" stroke="#94a3b8" stroke-width="1.5"/>
    </marker>
    <marker id="arrowGreen" markerWidth="8" markerHeight="6" refX="8" refY="3" orient="auto">
      <path d="M0,0 L8,3 L0,6" fill="none" stroke="#10b981" stroke-width="1.5"/>
    </marker>
    <marker id="arrowRed" markerWidth="8" markerHeight="6" refX="8" refY="3" orient="auto">
      <path d="M0,0 L8,3 L0,6" fill="none" stroke="#ef4444" stroke-width="1.5"/>
    </marker>
    <marker id="arrowPurple" markerWidth="8" markerHeight="6" refX="8" refY="3" orient="auto">
      <path d="M0,0 L8,3 L0,6" fill="none" stroke="#a78bfa" stroke-width="1.5"/>
    </marker>
  </defs>

  <!-- Background -->
  <rect width="1200" height="900" fill="url(#bgGrad)" rx="0"/>

  <!-- Subtle grid pattern -->
  <g opacity="0.03" stroke="#fff" stroke-width="0.5">
    <line x1="0" y1="0" x2="0" y2="900"/><line x1="40" y1="0" x2="40" y2="900"/>
    <line x1="80" y1="0" x2="80" y2="900"/><line x1="120" y1="0" x2="120" y2="900"/>
    <line x1="160" y1="0" x2="160" y2="900"/><line x1="200" y1="0" x2="200" y2="900"/>
    <line x1="240" y1="0" x2="240" y2="900"/><line x1="280" y1="0" x2="280" y2="900"/>
    <line x1="320" y1="0" x2="320" y2="900"/><line x1="360" y1="0" x2="360" y2="900"/>
    <line x1="400" y1="0" x2="400" y2="900"/><line x1="440" y1="0" x2="440" y2="900"/>
    <line x1="480" y1="0" x2="480" y2="900"/><line x1="520" y1="0" x2="520" y2="900"/>
    <line x1="560" y1="0" x2="560" y2="900"/><line x1="600" y1="0" x2="600" y2="900"/>
    <line x1="640" y1="0" x2="640" y2="900"/><line x1="680" y1="0" x2="680" y2="900"/>
    <line x1="720" y1="0" x2="720" y2="900"/><line x1="760" y1="0" x2="760" y2="900"/>
    <line x1="800" y1="0" x2="800" y2="900"/><line x1="840" y1="0" x2="840" y2="900"/>
    <line x1="880" y1="0" x2="880" y2="900"/><line x1="920" y1="0" x2="920" y2="900"/>
    <line x1="960" y1="0" x2="960" y2="900"/><line x1="1000" y1="0" x2="1000" y2="900"/>
    <line x1="1040" y1="0" x2="1040" y2="900"/><line x1="1080" y1="0" x2="1080" y2="900"/>
    <line x1="1120" y1="0" x2="1120" y2="900"/><line x1="1160" y1="0" x2="1160" y2="900"/>
    <line x1="0" y1="40" x2="1200" y2="40"/><line x1="0" y1="80" x2="1200" y2="80"/>
    <line x1="0" y1="120" x2="1200" y2="120"/><line x1="0" y1="160" x2="1200" y2="160"/>
    <line x1="0" y1="200" x2="1200" y2="200"/><line x1="0" y1="240" x2="1200" y2="240"/>
    <line x1="0" y1="280" x2="1200" y2="280"/><line x1="0" y1="320" x2="1200" y2="320"/>
    <line x1="0" y1="360" x2="1200" y2="360"/><line x1="0" y1="400" x2="1200" y2="400"/>
    <line x1="0" y1="440" x2="1200" y2="440"/><line x1="0" y1="480" x2="1200" y2="480"/>
    <line x1="0" y1="520" x2="1200" y2="520"/><line x1="0" y1="560" x2="1200" y2="560"/>
    <line x1="0" y1="600" x2="1200" y2="600"/><line x1="0" y1="640" x2="1200" y2="640"/>
    <line x1="0" y1="680" x2="1200" y2="680"/><line x1="0" y1="720" x2="1200" y2="720"/>
    <line x1="0" y1="760" x2="1200" y2="760"/><line x1="0" y1="800" x2="1200" y2="800"/>
    <line x1="0" y1="840" x2="1200" y2="840"/><line x1="0" y1="880" x2="1200" y2="880"/>
  </g>

  <!-- Title -->
  <text x="600" y="42" text-anchor="middle" fill="#f8fafc" font-size="22" font-weight="700" letter-spacing="1.5">REPLICALAB</text>
  <text x="600" y="62" text-anchor="middle" fill="#64748b" font-size="11" letter-spacing="3">SYSTEM ARCHITECTURE</text>

  <!-- ═══════════════════════════════════════════ -->
  <!-- ROW 1: SCENARIO GENERATION -->
  <!-- ═══════════════════════════════════════════ -->

  <!-- Paper Templates -->
  <g filter="url(#shadow)">
    <rect x="170" y="88" width="200" height="72" rx="10" fill="url(#scenarioGrad)" opacity="0.9"/>
    <text x="270" y="113" text-anchor="middle" fill="#fff" font-size="13" font-weight="600">Paper Templates</text>
    <text x="270" y="131" text-anchor="middle" fill="#bfdbfe" font-size="10">Cell Bio · ML Benchmark</text>
    <text x="270" y="145" text-anchor="middle" fill="#bfdbfe" font-size="10">Behavioral Psychology</text>
  </g>

  <!-- Constraint Generator -->
  <g filter="url(#shadow)">
    <rect x="830" y="88" width="200" height="72" rx="10" fill="url(#scenarioGrad)" opacity="0.9"/>
    <text x="930" y="113" text-anchor="middle" fill="#fff" font-size="13" font-weight="600">Constraint Generator</text>
    <text x="930" y="131" text-anchor="middle" fill="#bfdbfe" font-size="10">Equipment · Budget · Staff</text>
    <text x="930" y="145" text-anchor="middle" fill="#bfdbfe" font-size="10">Calendar · Reagents</text>
  </g>

  <!-- Scenario Engine -->
  <g filter="url(#shadow)">
    <rect x="480" y="88" width="240" height="72" rx="10" fill="#1e40af" opacity="0.95"/>
    <text x="600" y="116" text-anchor="middle" fill="#fff" font-size="14" font-weight="700">Scenario Engine</text>
    <text x="600" y="136" text-anchor="middle" fill="#93c5fd" font-size="11">seed → deterministic world</text>
  </g>

  <!-- Arrows into Scenario Engine -->
  <line x1="370" y1="124" x2="475" y2="124" stroke="#60a5fa" stroke-width="1.8" marker-end="url(#arrowWhite)" opacity="0.7"/>
  <line x1="830" y1="124" x2="725" y2="124" stroke="#60a5fa" stroke-width="1.8" marker-end="url(#arrowWhite)" opacity="0.7"/>

  <!-- ═══════════════════════════════════════════ -->
  <!-- ROW 2: ENVIRONMENT CORE (big box) -->
  <!-- ═══════════════════════════════════════════ -->

  <!-- Environment container -->
  <rect x="60" y="190" width="1080" height="290" rx="14" fill="#0f172a" stroke="#334155" stroke-width="1.5" opacity="0.85"/>
  <text x="100" y="216" fill="#475569" font-size="10" font-weight="600" letter-spacing="2">REPLICALAB ENVIRONMENT (OPENENV)</text>

  <!-- State box -->
  <g filter="url(#shadow)">
    <rect x="90" y="230" width="220" height="100" rx="8" fill="#1e293b" stroke="#475569" stroke-width="1"/>
    <text x="200" y="256" text-anchor="middle" fill="#e2e8f0" font-size="12" font-weight="600">Environment State</text>
    <text x="200" y="276" text-anchor="middle" fill="#94a3b8" font-size="9.5">Paper · Constraints · Round</text>
    <text x="200" y="291" text-anchor="middle" fill="#94a3b8" font-size="9.5">Budget · Protocol · History</text>
    <text x="200" y="306" text-anchor="middle" fill="#94a3b8" font-size="9.5">Stock · Done Flag</text>
  </g>

  <!-- Scientist box -->
  <g filter="url(#shadow)">
    <rect x="380" y="226" width="200" height="110" rx="10" fill="url(#sciGrad)"/>
    <text x="480" y="252" text-anchor="middle" fill="#fff" font-size="13" font-weight="700">🔬 Scientist</text>
    <text x="480" y="270" text-anchor="middle" fill="#ddd6fe" font-size="10">Trainable LLM Policy</text>
    <line x1="400" y1="282" x2="560" y2="282" stroke="#a78bfa" stroke-width="0.5" opacity="0.4"/>
    <text x="480" y="299" text-anchor="middle" fill="#c4b5fd" font-size="9.5">propose · revise</text>
    <text x="480" y="314" text-anchor="middle" fill="#c4b5fd" font-size="9.5">ask · accept</text>
  </g>

  <!-- Lab Manager box -->
  <g filter="url(#shadow)">
    <rect x="620" y="226" width="200" height="110" rx="10" fill="url(#lmGrad)"/>
    <text x="720" y="252" text-anchor="middle" fill="#fff" font-size="13" font-weight="700">🏗️ Lab Manager</text>
    <text x="720" y="270" text-anchor="middle" fill="#cffafe" font-size="10">Rule-Based Policy</text>
    <line x1="640" y1="282" x2="800" y2="282" stroke="#67e8f9" stroke-width="0.5" opacity="0.4"/>
    <text x="720" y="299" text-anchor="middle" fill="#a5f3fc" font-size="9.5">report · suggest</text>
    <text x="720" y="314" text-anchor="middle" fill="#a5f3fc" font-size="9.5">reject · accept</text>
  </g>

  <!-- Negotiation arrows between Scientist and Lab Manager -->
  <line x1="580" y1="264" x2="618" y2="264" stroke="#c4b5fd" stroke-width="1.5" marker-end="url(#arrowPurple)" opacity="0.8"/>
  <line x1="618" y1="280" x2="580" y2="280" stroke="#67e8f9" stroke-width="1.5" opacity="0.8"/>
  <text x="600" y="258" text-anchor="middle" fill="#94a3b8" font-size="7.5">proposal</text>
  <text x="600" y="293" text-anchor="middle" fill="#94a3b8" font-size="7.5">constraint</text>

  <!-- Judge box -->
  <g filter="url(#shadow)">
    <rect x="870" y="230" width="240" height="100" rx="10" fill="url(#judgeGrad)"/>
    <text x="990" y="259" text-anchor="middle" fill="#1e293b" font-size="13" font-weight="700">⚖️ Judge Engine</text>
    <line x1="890" y1="268" x2="1090" y2="268" stroke="#fbbf24" stroke-width="0.5" opacity="0.3"/>
    <text x="990" y="286" text-anchor="middle" fill="#451a03" font-size="10">Deterministic Rubric Scorer</text>
    <text x="990" y="303" text-anchor="middle" fill="#451a03" font-size="10">+ Optional LLM Explanation</text>
  </g>

  <!-- State to Agents arrow -->
  <line x1="310" y1="280" x2="375" y2="280" stroke="#94a3b8" stroke-width="1.5" marker-end="url(#arrowWhite)" opacity="0.5"/>
  <text x="342" y="273" text-anchor="middle" fill="#64748b" font-size="8">obs</text>

  <!-- Agents to State arrow (step) -->
  <path d="M480,340 L480,360 L200,360 L200,335" stroke="#94a3b8" stroke-width="1.5" fill="none" marker-end="url(#arrowWhite)" opacity="0.5" stroke-dasharray="4,3"/>
  <text x="340" y="373" text-anchor="middle" fill="#64748b" font-size="8">step()</text>

  <!-- Agents to Judge arrow -->
  <line x1="820" y1="280" x2="865" y2="280" stroke="#94a3b8" stroke-width="1.5" marker-end="url(#arrowWhite)" opacity="0.5"/>
  <text x="843" y="273" text-anchor="middle" fill="#64748b" font-size="8">end</text>

  <!-- reset() arrow from Scenario Engine to Env -->
  <line x1="600" y1="160" x2="600" y2="186" stroke="#60a5fa" stroke-width="1.8" marker-end="url(#arrowWhite)" opacity="0.7"/>
  <text x="615" y="178" fill="#64748b" font-size="8">reset(seed)</text>

  <!-- ═══════════════════════════════════════════ -->
  <!-- ROW 3: REWARD -->
  <!-- ═══════════════════════════════════════════ -->

  <!-- Reward container -->
  <g filter="url(#shadow)">
    <rect x="280" y="510" width="640" height="90" rx="12" fill="#064e3b" stroke="#10b981" stroke-width="1" opacity="0.9"/>
    <text x="320" y="536" fill="#6ee7b7" font-size="10" font-weight="600" letter-spacing="2">REWARD COMPUTATION</text>

    <!-- Score pills -->
    <rect x="310" y="548" width="80" height="28" rx="14" fill="#10b981" opacity="0.8"/>
    <text x="350" y="566" text-anchor="middle" fill="#fff" font-size="10" font-weight="600">Rigor</text>

    <text x="403" y="566" text-anchor="middle" fill="#6ee7b7" font-size="14">×</text>

    <rect x="416" y="548" width="100" height="28" rx="14" fill="#10b981" opacity="0.8"/>
    <text x="466" y="566" text-anchor="middle" fill="#fff" font-size="10" font-weight="600">Feasibility</text>

    <text x="529" y="566" text-anchor="middle" fill="#6ee7b7" font-size="14">×</text>

    <rect x="542" y="548" width="80" height="28" rx="14" fill="#10b981" opacity="0.8"/>
    <text x="582" y="566" text-anchor="middle" fill="#fff" font-size="10" font-weight="600">Fidelity</text>

    <text x="640" y="566" text-anchor="middle" fill="#6ee7b7" font-size="13">+</text>

    <rect x="656" y="548" width="72" height="28" rx="14" fill="#047857" opacity="0.8"/>
    <text x="692" y="566" text-anchor="middle" fill="#a7f3d0" font-size="10">Bonus</text>

    <text x="744" y="566" text-anchor="middle" fill="#f87171" font-size="13">−</text>

    <rect x="758" y="548" width="80" height="28" rx="14" fill="#7f1d1d" opacity="0.8"/>
    <text x="798" y="566" text-anchor="middle" fill="#fca5a5" font-size="10">Penalties</text>

    <!-- Equals result -->
    <text x="858" y="566" text-anchor="middle" fill="#6ee7b7" font-size="14">=</text>
    <text x="890" y="566" fill="#fff" font-size="11" font-weight="700">R</text>
  </g>

  <!-- Judge to Reward arrow -->
  <path d="M990,335 L990,440 L600,440 L600,505" stroke="#fbbf24" stroke-width="1.8" fill="none" marker-end="url(#arrowGreen)" opacity="0.6"/>
  <text x="610" y="455" fill="#64748b" font-size="8">scores</text>

  <!-- ═══════════════════════════════════════════ -->
  <!-- ROW 4: TRAINING + SERVING + UI -->
  <!-- ═══════════════════════════════════════════ -->

  <!-- Training box -->
  <g filter="url(#shadow)">
    <rect x="60" y="640" width="320" height="100" rx="12" fill="#450a0a" stroke="#ef4444" stroke-width="1" opacity="0.9"/>
    <text x="100" y="666" fill="#fca5a5" font-size="10" font-weight="600" letter-spacing="2">RL TRAINING PIPELINE</text>

    <rect x="85" y="680" width="100" height="32" rx="6" fill="url(#trainGrad)" opacity="0.85"/>
    <text x="135" y="700" text-anchor="middle" fill="#fff" font-size="10" font-weight="600">Colab</text>

    <line x1="188" y1="696" x2="208" y2="696" stroke="#fca5a5" stroke-width="1.2" marker-end="url(#arrowRed)" opacity="0.6"/>

    <rect x="212" y="680" width="72" height="32" rx="6" fill="url(#trainGrad)" opacity="0.85"/>
    <text x="248" y="700" text-anchor="middle" fill="#fff" font-size="10" font-weight="600">Rollout</text>

    <line x1="288" y1="696" x2="300" y2="696" stroke="#fca5a5" stroke-width="1.2" marker-end="url(#arrowRed)" opacity="0.6"/>

    <rect x="304" y="680" width="56" height="32" rx="6" fill="url(#trainGrad)" opacity="0.85"/>
    <text x="332" y="700" text-anchor="middle" fill="#fff" font-size="10" font-weight="600">Curves</text>

    <text x="220" y="730" text-anchor="middle" fill="#94a3b8" font-size="9">TRL / Unsloth · GRPO · H100</text>
  </g>

  <!-- Serving box -->
  <g filter="url(#shadow)">
    <rect x="440" y="640" width="310" height="100" rx="12" fill="#1e1b4b" stroke="#6366f1" stroke-width="1" opacity="0.9"/>
    <text x="480" y="666" fill="#a5b4fc" font-size="10" font-weight="600" letter-spacing="2">DEPLOYMENT &amp; SERVING</text>

    <rect x="465" y="680" width="80" height="32" rx="6" fill="url(#serveGrad)" opacity="0.85"/>
    <text x="505" y="700" text-anchor="middle" fill="#fff" font-size="10" font-weight="600">FastAPI</text>

    <line x1="548" y1="696" x2="562" y2="696" stroke="#a5b4fc" stroke-width="1.2" marker-end="url(#arrowWhite)" opacity="0.6"/>

    <rect x="566" y="680" width="72" height="32" rx="6" fill="url(#serveGrad)" opacity="0.85"/>
    <text x="602" y="700" text-anchor="middle" fill="#fff" font-size="10" font-weight="600">Docker</text>

    <line x1="640" y1="696" x2="654" y2="696" stroke="#a5b4fc" stroke-width="1.2" marker-end="url(#arrowWhite)" opacity="0.6"/>

    <rect x="658" y="680" width="72" height="32" rx="6" fill="url(#serveGrad)" opacity="0.85"/>
    <text x="694" y="700" text-anchor="middle" fill="#fff" font-size="10" font-weight="600">HF Space</text>

    <text x="595" y="730" text-anchor="middle" fill="#94a3b8" font-size="9">WebSocket · sdk:docker · port:7860</text>
  </g>

  <!-- UI box -->
  <g filter="url(#shadow)">
    <rect x="810" y="640" width="330" height="100" rx="12" fill="#4a1942" stroke="#ec4899" stroke-width="1" opacity="0.9"/>
    <text x="850" y="666" fill="#f9a8d4" font-size="10" font-weight="600" letter-spacing="2">FRONTEND</text>

    <rect x="835" y="680" width="90" height="32" rx="6" fill="url(#uiGrad)" opacity="0.85"/>
    <text x="880" y="700" text-anchor="middle" fill="#fff" font-size="10" font-weight="600">React+Vite</text>

    <rect x="940" y="680" width="80" height="32" rx="6" fill="#831843" stroke="#ec4899" stroke-width="0.5" opacity="0.85"/>
    <text x="980" y="700" text-anchor="middle" fill="#f9a8d4" font-size="10">/web fallback</text>

    <!-- UI panels -->
    <rect x="1038" y="676" width="82" height="12" rx="3" fill="#be185d" opacity="0.5"/>
    <text x="1079" y="685" text-anchor="middle" fill="#fce7f3" font-size="7">Paper · Seed</text>
    <rect x="1038" y="692" width="82" height="12" rx="3" fill="#be185d" opacity="0.5"/>
    <text x="1079" y="701" text-anchor="middle" fill="#fce7f3" font-size="7">Negotiation Log</text>
    <rect x="1038" y="708" width="82" height="12" rx="3" fill="#be185d" opacity="0.5"/>
    <text x="1079" y="717" text-anchor="middle" fill="#fce7f3" font-size="7">Protocol · Scores</text>

    <text x="975" y="730" text-anchor="middle" fill="#94a3b8" font-size="9">Tailwind · shadcn/ui</text>
  </g>

  <!-- ═══════════════════════════════════════════ -->
  <!-- CONNECTING ARROWS BETWEEN ROWS -->
  <!-- ═══════════════════════════════════════════ -->

  <!-- Reward to Training -->
  <path d="M440,555 L220,555 L220,636" stroke="#10b981" stroke-width="1.8" fill="none" marker-end="url(#arrowGreen)" opacity="0.6"/>
  <text x="250" y="615" fill="#6ee7b7" font-size="8">reward signal</text>

  <!-- Training back to Scientist (updated weights) -->
  <path d="M135,640 L135,430 L480,430 L480,340" stroke="#ef4444" stroke-width="1.5" fill="none" marker-end="url(#arrowRed)" opacity="0.5" stroke-dasharray="6,4"/>
  <text x="185" y="420" fill="#fca5a5" font-size="8">updated weights</text>

  <!-- Env to Serving -->
  <path d="M600,484 L600,510" stroke="transparent" fill="none"/>
  <line x1="505" y1="484" x2="505" y2="636" stroke="#94a3b8" stroke-width="1.2" marker-end="url(#arrowWhite)" opacity="0.35" stroke-dasharray="4,3"/>

  <!-- Serving to UI -->
  <line x1="750" y1="690" x2="806" y2="690" stroke="#94a3b8" stroke-width="1.2" marker-end="url(#arrowWhite)" opacity="0.5"/>
  <text x="778" y="684" text-anchor="middle" fill="#64748b" font-size="7.5">WS</text>

  <!-- ═══════════════════════════════════════════ -->
  <!-- BOTTOM: TRACK TAGS -->
  <!-- ═══════════════════════════════════════════ -->
  <g>
    <rect x="230" y="790" width="140" height="26" rx="13" fill="#7c3aed" opacity="0.25" stroke="#8b5cf6" stroke-width="0.8"/>
    <text x="300" y="807" text-anchor="middle" fill="#c4b5fd" font-size="9.5" font-weight="600">Multi-Agent</text>

    <rect x="390" y="790" width="140" height="26" rx="13" fill="#2563eb" opacity="0.25" stroke="#3b82f6" stroke-width="0.8"/>
    <text x="460" y="807" text-anchor="middle" fill="#93c5fd" font-size="9.5" font-weight="600">World Modeling</text>

    <rect x="550" y="790" width="150" height="26" rx="13" fill="#0891b2" opacity="0.2" stroke="#06b6d4" stroke-width="0.8"/>
    <text x="625" y="807" text-anchor="middle" fill="#67e8f9" font-size="9.5" font-weight="600">Long-Horizon Plan</text>

    <rect x="720" y="790" width="150" height="26" rx="13" fill="#dc2626" opacity="0.2" stroke="#ef4444" stroke-width="0.8"/>
    <text x="795" y="807" text-anchor="middle" fill="#fca5a5" font-size="9.5" font-weight="600">Self-Improvement</text>

    <text x="600" y="776" text-anchor="middle" fill="#475569" font-size="9" letter-spacing="2">HACKATHON TRACKS</text>
  </g>

  <!-- ═══════════════════════════════════════════ -->
  <!-- BOTTOM: LEGEND -->
  <!-- ═══════════════════════════════════════════ -->
  <g transform="translate(60, 840)">
    <text x="0" y="12" fill="#475569" font-size="9" letter-spacing="1.5">LEGEND</text>
    <line x1="70" y1="9" x2="100" y2="9" stroke="#94a3b8" stroke-width="1.5" marker-end="url(#arrowWhite)"/>
    <text x="108" y="13" fill="#64748b" font-size="9">Data flow</text>
    <line x1="180" y1="9" x2="210" y2="9" stroke="#94a3b8" stroke-width="1.5" stroke-dasharray="5,3" marker-end="url(#arrowWhite)"/>
    <text x="218" y="13" fill="#64748b" font-size="9">Feedback loop</text>
    <rect x="310" y="2" width="12" height="12" rx="3" fill="url(#sciGrad)"/>
    <text x="328" y="13" fill="#64748b" font-size="9">Trainable</text>
    <rect x="390" y="2" width="12" height="12" rx="3" fill="url(#lmGrad)"/>
    <text x="408" y="13" fill="#64748b" font-size="9">Rule-based</text>
    <rect x="480" y="2" width="12" height="12" rx="3" fill="url(#judgeGrad)"/>
    <text x="498" y="13" fill="#64748b" font-size="9">Rubric scorer</text>
  </g>

  <!-- Watermark -->
  <text x="1170" y="880" text-anchor="end" fill="#334155" font-size="8" opacity="0.6">ReplicaLab · OpenEnv Hackathon 2026</text>
</svg>