<svg xmlns="http://www.w3.org/2000/svg" viewBox="0 0 1600 1200" font-family="'Segoe UI', system-ui, -apple-system, sans-serif">
  <defs>
    <linearGradient id="bgGrad" x1="0%" y1="0%" x2="100%" y2="100%">
      <stop offset="0%" style="stop-color:#0f172a"/>
      <stop offset="100%" style="stop-color:#1e293b"/>
    </linearGradient>
    <linearGradient id="scenarioGrad" x1="0%" y1="0%" x2="0%" y2="100%">
      <stop offset="0%" style="stop-color:#3b82f6"/>
      <stop offset="100%" style="stop-color:#2563eb"/>
    </linearGradient>
    <linearGradient id="sciGrad" x1="0%" y1="0%" x2="0%" y2="100%">
      <stop offset="0%" style="stop-color:#8b5cf6"/>
      <stop offset="100%" style="stop-color:#7c3aed"/>
    </linearGradient>
    <linearGradient id="lmGrad" x1="0%" y1="0%" x2="0%" y2="100%">
      <stop offset="0%" style="stop-color:#06b6d4"/>
      <stop offset="100%" style="stop-color:#0891b2"/>
    </linearGradient>
    <linearGradient id="judgeGrad" x1="0%" y1="0%" x2="0%" y2="100%">
      <stop offset="0%" style="stop-color:#f59e0b"/>
      <stop offset="100%" style="stop-color:#d97706"/>
    </linearGradient>
    <linearGradient id="rewardGrad" x1="0%" y1="0%" x2="0%" y2="100%">
      <stop offset="0%" style="stop-color:#10b981"/>
      <stop offset="100%" style="stop-color:#059669"/>
    </linearGradient>
    <linearGradient id="trainGrad" x1="0%" y1="0%" x2="0%" y2="100%">
      <stop offset="0%" style="stop-color:#ef4444"/>
      <stop offset="100%" style="stop-color:#dc2626"/>
    </linearGradient>
    <linearGradient id="serveGrad" x1="0%" y1="0%" x2="0%" y2="100%">
      <stop offset="0%" style="stop-color:#6366f1"/>
      <stop offset="100%" style="stop-color:#4f46e5"/>
    </linearGradient>
    <linearGradient id="uiGrad" x1="0%" y1="0%" x2="0%" y2="100%">
      <stop offset="0%" style="stop-color:#ec4899"/>
      <stop offset="100%" style="stop-color:#db2777"/>
    </linearGradient>
    <linearGradient id="rigorGrad" x1="0%" y1="0%" x2="0%" y2="100%">
      <stop offset="0%" style="stop-color:#059669"/>
      <stop offset="100%" style="stop-color:#047857"/>
    </linearGradient>
    <linearGradient id="feasGrad" x1="0%" y1="0%" x2="0%" y2="100%">
      <stop offset="0%" style="stop-color:#0d9488"/>
      <stop offset="100%" style="stop-color:#0f766e"/>
    </linearGradient>
    <linearGradient id="fidelGrad" x1="0%" y1="0%" x2="0%" y2="100%">
      <stop offset="0%" style="stop-color:#0284c7"/>
      <stop offset="100%" style="stop-color:#0369a1"/>
    </linearGradient>
    <linearGradient id="parsGrad" x1="0%" y1="0%" x2="0%" y2="100%">
      <stop offset="0%" style="stop-color:#65a30d"/>
      <stop offset="100%" style="stop-color:#4d7c0f"/>
    </linearGradient>
    <filter id="shadow" x="-4%" y="-4%" width="108%" height="116%">
      <feDropShadow dx="0" dy="3" stdDeviation="6" flood-color="#000" flood-opacity="0.4"/>
    </filter>
    <filter id="glow" x="-20%" y="-20%" width="140%" height="140%">
      <feGaussianBlur stdDeviation="4" result="blur"/>
      <feMerge><feMergeNode in="blur"/><feMergeNode in="SourceGraphic"/></feMerge>
    </filter>
    <marker id="arrowWhite" markerWidth="8" markerHeight="6" refX="8" refY="3" orient="auto">
      <path d="M0,0 L8,3 L0,6" fill="none" stroke="#94a3b8" stroke-width="1.5"/>
    </marker>
    <marker id="arrowGreen" markerWidth="8" markerHeight="6" refX="8" refY="3" orient="auto">
      <path d="M0,0 L8,3 L0,6" fill="none" stroke="#10b981" stroke-width="1.5"/>
    </marker>
    <marker id="arrowRed" markerWidth="8" markerHeight="6" refX="8" refY="3" orient="auto">
      <path d="M0,0 L8,3 L0,6" fill="none" stroke="#ef4444" stroke-width="1.5"/>
    </marker>
    <marker id="arrowPurple" markerWidth="8" markerHeight="6" refX="8" refY="3" orient="auto">
      <path d="M0,0 L8,3 L0,6" fill="none" stroke="#a78bfa" stroke-width="1.5"/>
    </marker>
    <marker id="arrowCyan" markerWidth="8" markerHeight="6" refX="8" refY="3" orient="auto">
      <path d="M0,0 L8,3 L0,6" fill="none" stroke="#67e8f9" stroke-width="1.5"/>
    </marker>
    <marker id="arrowAmber" markerWidth="8" markerHeight="6" refX="8" refY="3" orient="auto">
      <path d="M0,0 L8,3 L0,6" fill="none" stroke="#fbbf24" stroke-width="1.5"/>
    </marker>
  </defs>

  <!-- Background -->
  <rect width="1600" height="1200" fill="url(#bgGrad)"/>

  <!-- Grid pattern -->
  <g opacity="0.025" stroke="#fff" stroke-width="0.5">
    <line x1="80" y1="0" x2="80" y2="1200"/><line x1="160" y1="0" x2="160" y2="1200"/>
    <line x1="240" y1="0" x2="240" y2="1200"/><line x1="320" y1="0" x2="320" y2="1200"/>
    <line x1="400" y1="0" x2="400" y2="1200"/><line x1="480" y1="0" x2="480" y2="1200"/>
    <line x1="560" y1="0" x2="560" y2="1200"/><line x1="640" y1="0" x2="640" y2="1200"/>
    <line x1="720" y1="0" x2="720" y2="1200"/><line x1="800" y1="0" x2="800" y2="1200"/>
    <line x1="880" y1="0" x2="880" y2="1200"/><line x1="960" y1="0" x2="960" y2="1200"/>
    <line x1="1040" y1="0" x2="1040" y2="1200"/><line x1="1120" y1="0" x2="1120" y2="1200"/>
    <line x1="1200" y1="0" x2="1200" y2="1200"/><line x1="1280" y1="0" x2="1280" y2="1200"/>
    <line x1="1360" y1="0" x2="1360" y2="1200"/><line x1="1440" y1="0" x2="1440" y2="1200"/>
    <line x1="1520" y1="0" x2="1520" y2="1200"/>
    <line x1="0" y1="80" x2="1600" y2="80"/><line x1="0" y1="160" x2="1600" y2="160"/>
    <line x1="0" y1="240" x2="1600" y2="240"/><line x1="0" y1="320" x2="1600" y2="320"/>
    <line x1="0" y1="400" x2="1600" y2="400"/><line x1="0" y1="480" x2="1600" y2="480"/>
    <line x1="0" y1="560" x2="1600" y2="560"/><line x1="0" y1="640" x2="1600" y2="640"/>
    <line x1="0" y1="720" x2="1600" y2="720"/><line x1="0" y1="800" x2="1600" y2="800"/>
    <line x1="0" y1="880" x2="1600" y2="880"/><line x1="0" y1="960" x2="1600" y2="960"/>
    <line x1="0" y1="1040" x2="1600" y2="1040"/><line x1="0" y1="1120" x2="1600" y2="1120"/>
  </g>

  <!-- ============================================== -->
  <!-- TITLE                                          -->
  <!-- ============================================== -->
  <text x="800" y="38" text-anchor="middle" fill="#f8fafc" font-size="26" font-weight="800" letter-spacing="2">REPLICALAB</text>
  <text x="800" y="58" text-anchor="middle" fill="#64748b" font-size="12" letter-spacing="4">FINAL SYSTEM ARCHITECTURE</text>
  <text x="800" y="74" text-anchor="middle" fill="#475569" font-size="9" letter-spacing="1">Multi-Agent Constraint-Aware Negotiation Environment for Scientific Replication</text>

  <!-- ============================================== -->
  <!-- ROW 1: SCENARIO GENERATION LAYER               -->
  <!-- ============================================== -->

  <!-- Paper Templates -->
  <g filter="url(#shadow)">
    <rect x="80" y="90" width="350" height="80" rx="10" fill="url(#scenarioGrad)" opacity="0.9"/>
    <text x="255" y="115" text-anchor="middle" fill="#fff" font-size="13" font-weight="700">Paper Templates</text>
    <rect x="100" y="125" width="95" height="22" rx="11" fill="#1e40af" opacity="0.7"/>
    <text x="147" y="140" text-anchor="middle" fill="#bfdbfe" font-size="9">Math Reasoning</text>
    <rect x="205" y="125" width="90" height="22" rx="11" fill="#1e40af" opacity="0.7"/>
    <text x="250" y="140" text-anchor="middle" fill="#bfdbfe" font-size="9">ML Benchmark</text>
    <rect x="305" y="125" width="105" height="22" rx="11" fill="#1e40af" opacity="0.7"/>
    <text x="357" y="140" text-anchor="middle" fill="#bfdbfe" font-size="9">Finance Trading</text>
    <text x="255" y="162" text-anchor="middle" fill="#93c5fd" font-size="8.5">3 Domains x 3 Difficulties (Easy/Med/Hard)</text>
  </g>

  <!-- Scenario Engine -->
  <g filter="url(#shadow)">
    <rect x="560" y="90" width="340" height="80" rx="10" fill="#1e40af" opacity="0.95"/>
    <text x="730" y="117" text-anchor="middle" fill="#fff" font-size="14" font-weight="800">Scenario Engine</text>
    <text x="730" y="137" text-anchor="middle" fill="#93c5fd" font-size="11">seed -> NormalizedScenarioPack</text>
    <text x="730" y="155" text-anchor="middle" fill="#60a5fa" font-size="9">Deterministic world generation</text>
  </g>

  <!-- Constraint Generator -->
  <g filter="url(#shadow)">
    <rect x="1030" y="90" width="350" height="80" rx="10" fill="url(#scenarioGrad)" opacity="0.9"/>
    <text x="1205" y="115" text-anchor="middle" fill="#fff" font-size="13" font-weight="700">Constraint Generator</text>
    <text x="1205" y="135" text-anchor="middle" fill="#bfdbfe" font-size="10">Equipment | Budget | Staff</text>
    <text x="1205" y="152" text-anchor="middle" fill="#bfdbfe" font-size="10">Calendar | Reagents | Policy</text>
  </g>

  <!-- Arrows into Scenario Engine -->
  <line x1="430" y1="130" x2="555" y2="130" stroke="#60a5fa" stroke-width="2" marker-end="url(#arrowWhite)" opacity="0.7"/>
  <line x1="1030" y1="130" x2="905" y2="130" stroke="#60a5fa" stroke-width="2" marker-end="url(#arrowWhite)" opacity="0.7"/>

  <!-- Scenario Engine to Environment -->
  <line x1="730" y1="170" x2="730" y2="192" stroke="#60a5fa" stroke-width="2" marker-end="url(#arrowWhite)" opacity="0.7"/>
  <text x="760" y="186" fill="#64748b" font-size="8">reset(seed)</text>

  <!-- ============================================== -->
  <!-- ROW 2: ENVIRONMENT CORE                        -->
  <!-- ============================================== -->

  <!-- Environment container -->
  <rect x="50" y="195" width="1500" height="310" rx="14" fill="#0f172a" stroke="#334155" stroke-width="1.5" opacity="0.85"/>
  <text x="95" y="218" fill="#475569" font-size="10" font-weight="700" letter-spacing="2.5">REPLICALAB ENVIRONMENT (OPENENV 0.2.1)</text>

  <!-- State box -->
  <g filter="url(#shadow)">
    <rect x="80" y="235" width="250" height="130" rx="8" fill="#1e293b" stroke="#475569" stroke-width="1"/>
    <text x="205" y="260" text-anchor="middle" fill="#e2e8f0" font-size="12" font-weight="700">Environment State</text>
    <line x1="100" y1="267" x2="310" y2="267" stroke="#334155" stroke-width="0.5"/>
    <text x="205" y="284" text-anchor="middle" fill="#94a3b8" font-size="9.5">Paper | Constraints | Round</text>
    <text x="205" y="300" text-anchor="middle" fill="#94a3b8" font-size="9.5">Budget | Protocol | History</text>
    <text x="205" y="316" text-anchor="middle" fill="#94a3b8" font-size="9.5">Stock | Done | Episode ID</text>
    <rect x="110" y="325" width="190" height="18" rx="4" fill="#334155" opacity="0.6"/>
    <text x="205" y="338" text-anchor="middle" fill="#64748b" font-size="8">MAX_ROUNDS=6 | BUDGET=5000</text>
  </g>

  <!-- Scientist box -->
  <g filter="url(#shadow)">
    <rect x="400" y="228" width="225" height="150" rx="10" fill="url(#sciGrad)"/>
    <text x="512" y="254" text-anchor="middle" fill="#fff" font-size="13" font-weight="700">Scientist Agent</text>
    <text x="512" y="272" text-anchor="middle" fill="#ddd6fe" font-size="10">Trainable LLM Policy</text>
    <line x1="420" y1="282" x2="605" y2="282" stroke="#a78bfa" stroke-width="0.5" opacity="0.4"/>
    <text x="512" y="300" text-anchor="middle" fill="#c4b5fd" font-size="9.5">propose | revise</text>
    <text x="512" y="316" text-anchor="middle" fill="#c4b5fd" font-size="9.5">request_info | accept</text>
    <rect x="430" y="326" width="165" height="20" rx="4" fill="#6d28d9" opacity="0.5"/>
    <text x="512" y="340" text-anchor="middle" fill="#ddd6fe" font-size="8.5">Qwen3-8B + LoRA (GRPO)</text>
    <text x="512" y="369" text-anchor="middle" fill="#a78bfa" font-size="8">retry w/ correction prompts</text>
  </g>

  <!-- Lab Manager box -->
  <g filter="url(#shadow)">
    <rect x="680" y="228" width="225" height="150" rx="10" fill="url(#lmGrad)"/>
    <text x="792" y="254" text-anchor="middle" fill="#fff" font-size="13" font-weight="700">Lab Manager</text>
    <text x="792" y="272" text-anchor="middle" fill="#cffafe" font-size="10">Deterministic Rule-Based</text>
    <line x1="700" y1="282" x2="885" y2="282" stroke="#67e8f9" stroke-width="0.5" opacity="0.4"/>
    <text x="792" y="300" text-anchor="middle" fill="#a5f3fc" font-size="9.5">report | suggest</text>
    <text x="792" y="316" text-anchor="middle" fill="#a5f3fc" font-size="9.5">reject | accept</text>
    <rect x="710" y="326" width="165" height="20" rx="4" fill="#0e7490" opacity="0.5"/>
    <text x="792" y="340" text-anchor="middle" fill="#cffafe" font-size="8.5">7-Dim Feasibility Check</text>
    <text x="792" y="369" text-anchor="middle" fill="#67e8f9" font-size="8">+ alternative suggestions</text>
  </g>

  <!-- Negotiation arrows -->
  <line x1="625" y1="264" x2="675" y2="264" stroke="#c4b5fd" stroke-width="1.8" marker-end="url(#arrowPurple)" opacity="0.8"/>
  <line x1="675" y1="280" x2="625" y2="280" stroke="#67e8f9" stroke-width="1.8" marker-end="url(#arrowCyan)" opacity="0.8"/>
  <text x="650" y="256" text-anchor="middle" fill="#94a3b8" font-size="7.5">proposal</text>
  <text x="650" y="293" text-anchor="middle" fill="#94a3b8" font-size="7.5">feedback</text>

  <!-- Judge Engine box -->
  <g filter="url(#shadow)">
    <rect x="970" y="235" width="280" height="130" rx="10" fill="url(#judgeGrad)"/>
    <text x="1110" y="262" text-anchor="middle" fill="#1e293b" font-size="14" font-weight="800">Judge Engine</text>
    <line x1="990" y1="270" x2="1230" y2="270" stroke="#fbbf24" stroke-width="0.5" opacity="0.3"/>
    <text x="1110" y="288" text-anchor="middle" fill="#451a03" font-size="10.5">Deterministic Rubric Scorer</text>
    <text x="1110" y="306" text-anchor="middle" fill="#451a03" font-size="10">4-Dim Scoring Pipeline</text>
    <text x="1110" y="324" text-anchor="middle" fill="#78350f" font-size="9.5">+ Optional LLM Explanation</text>
    <rect x="1000" y="332" width="220" height="18" rx="4" fill="#92400e" opacity="0.4"/>
    <text x="1110" y="345" text-anchor="middle" fill="#fef3c7" font-size="8">rigor x feasibility x fidelity x parsimony</text>
  </g>

  <!-- Oracle box (optional, dashed) -->
  <g filter="url(#shadow)">
    <rect x="1310" y="275" width="200" height="70" rx="8" fill="#1e293b" stroke="#475569" stroke-width="1" stroke-dasharray="5,3" opacity="0.7"/>
    <text x="1410" y="300" text-anchor="middle" fill="#94a3b8" font-size="11" font-weight="600">Oracle Layer</text>
    <text x="1410" y="317" text-anchor="middle" fill="#64748b" font-size="9">Optional | LLM Narrative</text>
    <text x="1410" y="333" text-anchor="middle" fill="#64748b" font-size="8.5">Events | Post-Mortem</text>
  </g>

  <!-- State to Scientist arrow -->
  <line x1="330" y1="290" x2="395" y2="290" stroke="#94a3b8" stroke-width="1.5" marker-end="url(#arrowWhite)" opacity="0.6"/>
  <text x="362" y="283" text-anchor="middle" fill="#64748b" font-size="8">obs</text>

  <!-- Lab Manager to Judge arrow -->
  <line x1="905" y1="290" x2="965" y2="290" stroke="#94a3b8" stroke-width="1.5" marker-end="url(#arrowWhite)" opacity="0.6"/>
  <text x="935" y="283" text-anchor="middle" fill="#64748b" font-size="8">end</text>

  <!-- Scientist step() loop back to State -->
  <path d="M512,382 L512,410 L205,410 L205,370" stroke="#94a3b8" stroke-width="1.5" fill="none" marker-end="url(#arrowWhite)" opacity="0.45" stroke-dasharray="4,3"/>
  <text x="360" y="424" text-anchor="middle" fill="#64748b" font-size="8">step(ScientistAction)</text>

  <!-- Judge to Scoring arrow -->
  <path d="M1110,370 L1110,450 L800,450 L800,520" stroke="#fbbf24" stroke-width="2" fill="none" marker-end="url(#arrowAmber)" opacity="0.6"/>
  <text x="830" y="465" fill="#64748b" font-size="8">scores</text>

  <!-- ============================================== -->
  <!-- ROW 3: SCORING ENGINE (4 DIMENSIONS)           -->
  <!-- ============================================== -->

  <text x="800" y="540" text-anchor="middle" fill="#475569" font-size="10" font-weight="700" letter-spacing="2.5">SCORING ENGINE (4 DIMENSIONS)</text>

  <!-- Rigor Score -->
  <g filter="url(#shadow)">
    <rect x="60" y="552" width="350" height="145" rx="10" fill="#064e3b" stroke="#059669" stroke-width="1" opacity="0.9"/>
    <rect x="60" y="552" width="350" height="28" rx="10" fill="url(#rigorGrad)" opacity="0.8"/>
    <rect x="60" y="570" width="350" height="10" fill="url(#rigorGrad)" opacity="0.8"/>
    <text x="235" y="572" text-anchor="middle" fill="#fff" font-size="12" font-weight="700">RIGOR [0, 1]</text>
    <text x="235" y="600" text-anchor="middle" fill="#6ee7b7" font-size="10">Structural Quality Assessment</text>
    <rect x="80" y="610" width="70" height="16" rx="3" fill="#047857" opacity="0.6"/>
    <text x="115" y="622" text-anchor="middle" fill="#a7f3d0" font-size="8">30%</text>
    <text x="158" y="622" fill="#94a3b8" font-size="8.5">Structural completeness</text>
    <rect x="80" y="630" width="70" height="16" rx="3" fill="#047857" opacity="0.6"/>
    <text x="115" y="642" text-anchor="middle" fill="#a7f3d0" font-size="8">40%</text>
    <text x="158" y="642" fill="#94a3b8" font-size="8.5">Success criteria coverage</text>
    <rect x="80" y="650" width="70" height="16" rx="3" fill="#047857" opacity="0.6"/>
    <text x="115" y="662" text-anchor="middle" fill="#a7f3d0" font-size="8">30%</text>
    <text x="158" y="662" fill="#94a3b8" font-size="8.5">Required element coverage</text>
    <text x="235" y="688" text-anchor="middle" fill="#4ade80" font-size="7.5">sample | controls | technique | duration | rationale</text>
  </g>

  <!-- Feasibility Score -->
  <g filter="url(#shadow)">
    <rect x="425" y="552" width="350" height="145" rx="10" fill="#042f2e" stroke="#0d9488" stroke-width="1" opacity="0.9"/>
    <rect x="425" y="552" width="350" height="28" rx="10" fill="url(#feasGrad)" opacity="0.8"/>
    <rect x="425" y="570" width="350" height="10" fill="url(#feasGrad)" opacity="0.8"/>
    <text x="600" y="572" text-anchor="middle" fill="#fff" font-size="12" font-weight="700">FEASIBILITY [0, 1]</text>
    <text x="600" y="600" text-anchor="middle" fill="#5eead4" font-size="10">7 Equal-Weight Dimensions</text>
    <!-- 7 dimension pills in 2 rows -->
    <rect x="445" y="612" width="72" height="18" rx="4" fill="#0f766e" opacity="0.6"/>
    <text x="481" y="625" text-anchor="middle" fill="#99f6e4" font-size="8">Protocol</text>
    <rect x="523" y="612" width="62" height="18" rx="4" fill="#0f766e" opacity="0.6"/>
    <text x="554" y="625" text-anchor="middle" fill="#99f6e4" font-size="8">Budget</text>
    <rect x="591" y="612" width="80" height="18" rx="4" fill="#0f766e" opacity="0.6"/>
    <text x="631" y="625" text-anchor="middle" fill="#99f6e4" font-size="8">Equipment</text>
    <rect x="677" y="612" width="78" height="18" rx="4" fill="#0f766e" opacity="0.6"/>
    <text x="716" y="625" text-anchor="middle" fill="#99f6e4" font-size="8">Reagents</text>
    <rect x="445" y="636" width="76" height="18" rx="4" fill="#0f766e" opacity="0.6"/>
    <text x="483" y="649" text-anchor="middle" fill="#99f6e4" font-size="8">Schedule</text>
    <rect x="527" y="636" width="54" height="18" rx="4" fill="#0f766e" opacity="0.6"/>
    <text x="554" y="649" text-anchor="middle" fill="#99f6e4" font-size="8">Staff</text>
    <rect x="587" y="636" width="60" height="18" rx="4" fill="#0f766e" opacity="0.6"/>
    <text x="617" y="649" text-anchor="middle" fill="#99f6e4" font-size="8">Policy</text>
    <text x="600" y="672" text-anchor="middle" fill="#94a3b8" font-size="8">Binary + Continuous scoring</text>
    <text x="600" y="688" text-anchor="middle" fill="#2dd4bf" font-size="7.5">Wraps FeasibilityCheckResult (no rescore)</text>
  </g>

  <!-- Fidelity Score -->
  <g filter="url(#shadow)">
    <rect x="790" y="552" width="350" height="145" rx="10" fill="#0c2d48" stroke="#0284c7" stroke-width="1" opacity="0.9"/>
    <rect x="790" y="552" width="350" height="28" rx="10" fill="url(#fidelGrad)" opacity="0.8"/>
    <rect x="790" y="570" width="350" height="10" fill="url(#fidelGrad)" opacity="0.8"/>
    <text x="965" y="572" text-anchor="middle" fill="#fff" font-size="12" font-weight="700">FIDELITY [0, 1]</text>
    <text x="965" y="600" text-anchor="middle" fill="#7dd3fc" font-size="10">Hidden Spec Adherence</text>
    <rect x="810" y="610" width="70" height="16" rx="3" fill="#0369a1" opacity="0.6"/>
    <text x="845" y="622" text-anchor="middle" fill="#bae6fd" font-size="8">50%</text>
    <text x="888" y="622" fill="#94a3b8" font-size="8.5">Required elements (sub-aware)</text>
    <rect x="810" y="630" width="70" height="16" rx="3" fill="#0369a1" opacity="0.6"/>
    <text x="845" y="642" text-anchor="middle" fill="#bae6fd" font-size="8">20%</text>
    <text x="888" y="642" fill="#94a3b8" font-size="8.5">Flexible element alignment</text>
    <rect x="810" y="650" width="70" height="16" rx="3" fill="#0369a1" opacity="0.6"/>
    <text x="845" y="662" text-anchor="middle" fill="#bae6fd" font-size="8">20%</text>
    <text x="888" y="662" fill="#94a3b8" font-size="8.5">Target metric alignment</text>
    <rect x="810" y="670" width="70" height="16" rx="3" fill="#0369a1" opacity="0.6"/>
    <text x="845" y="682" text-anchor="middle" fill="#bae6fd" font-size="8">10%</text>
    <text x="888" y="682" fill="#94a3b8" font-size="8.5">Technique appropriateness</text>
  </g>

  <!-- Parsimony Score -->
  <g filter="url(#shadow)">
    <rect x="1155" y="552" width="345" height="145" rx="10" fill="#1a2e05" stroke="#65a30d" stroke-width="1" opacity="0.9"/>
    <rect x="1155" y="552" width="345" height="28" rx="10" fill="url(#parsGrad)" opacity="0.8"/>
    <rect x="1155" y="570" width="345" height="10" fill="url(#parsGrad)" opacity="0.8"/>
    <text x="1327" y="572" text-anchor="middle" fill="#fff" font-size="12" font-weight="700">PARSIMONY [0.25, 1]</text>
    <text x="1327" y="600" text-anchor="middle" fill="#bef264" font-size="10">Complexity Economy</text>
    <text x="1327" y="624" text-anchor="middle" fill="#94a3b8" font-size="9.5">complexity_budget</text>
    <line x1="1267" y1="630" x2="1387" y2="630" stroke="#4d7c0f" stroke-width="1" opacity="0.6"/>
    <text x="1327" y="646" text-anchor="middle" fill="#94a3b8" font-size="9.5">max(budget, requested)</text>
    <text x="1327" y="668" text-anchor="middle" fill="#a3e635" font-size="9">Penalizes over-requesting</text>
    <text x="1327" y="684" text-anchor="middle" fill="#a3e635" font-size="9">controls + equipment + reagents</text>
    <text x="1327" y="695" text-anchor="middle" fill="#65a30d" font-size="7.5">Floor: 0.25 | Default: 1.0</text>
  </g>

  <!-- Scoring to Reward arrow -->
  <line x1="800" y1="697" x2="800" y2="718" stroke="#10b981" stroke-width="2" marker-end="url(#arrowGreen)" opacity="0.6"/>

  <!-- ============================================== -->
  <!-- ROW 4: REWARD COMPUTATION                      -->
  <!-- ============================================== -->

  <g filter="url(#shadow)">
    <rect x="60" y="720" width="1480" height="155" rx="12" fill="#064e3b" stroke="#10b981" stroke-width="1.2" opacity="0.9"/>
    <text x="100" y="742" fill="#6ee7b7" font-size="10" font-weight="700" letter-spacing="2.5">REWARD COMPUTATION</text>

    <!-- Terminal Formula -->
    <rect x="80" y="750" width="1440" height="30" rx="6" fill="#022c22" opacity="0.7"/>
    <text x="100" y="770" fill="#6ee7b7" font-size="11" font-weight="700">Terminal:</text>
    <text x="170" y="770" fill="#fff" font-size="11" font-weight="600">R = 10</text>
    <text x="210" y="770" fill="#6ee7b7" font-size="13">x</text>
    <text x="225" y="770" fill="#a7f3d0" font-size="11">rigor</text>
    <text x="265" y="770" fill="#6ee7b7" font-size="13">x</text>
    <text x="280" y="770" fill="#a7f3d0" font-size="11">feasibility</text>
    <text x="345" y="770" fill="#6ee7b7" font-size="13">x</text>
    <text x="360" y="770" fill="#a7f3d0" font-size="11">fidelity</text>
    <text x="410" y="770" fill="#6ee7b7" font-size="13">x</text>
    <text x="425" y="770" fill="#a7f3d0" font-size="11">parsimony</text>
    <text x="497" y="770" fill="#6ee7b7" font-size="13">+</text>
    <text x="513" y="770" fill="#86efac" font-size="11">efficiency_bonus</text>
    <text x="637" y="770" fill="#f87171" font-size="13">-</text>
    <text x="660" y="770" fill="#fca5a5" font-size="11">penalties</text>
    <text x="780" y="770" fill="#475569" font-size="10">|</text>
    <text x="800" y="770" fill="#64748b" font-size="9.5">Efficiency = (max_rounds - used) / (max_rounds - 1), cap 1.0</text>

    <!-- Step Shaping Section (left) -->
    <text x="100" y="800" fill="#a7f3d0" font-size="10" font-weight="600">Step-Level Shaping</text>

    <rect x="100" y="808" width="130" height="16" rx="3" fill="#047857" opacity="0.5"/>
    <text x="165" y="820" text-anchor="middle" fill="#6ee7b7" font-size="8">Info gain +0.05/Q</text>
    <rect x="238" y="808" width="130" height="16" rx="3" fill="#047857" opacity="0.5"/>
    <text x="303" y="820" text-anchor="middle" fill="#6ee7b7" font-size="8">Proto delta x0.25</text>
    <rect x="376" y="808" width="130" height="16" rx="3" fill="#047857" opacity="0.5"/>
    <text x="441" y="820" text-anchor="middle" fill="#6ee7b7" font-size="8">Momentum +0.05</text>
    <text x="100" y="845" fill="#4ade80" font-size="7.5">Cap: info 0.15 | delta 0.3 | Novel questions + revisions rewarded</text>

    <!-- Penalties Section (right) -->
    <text x="620" y="800" fill="#fca5a5" font-size="10" font-weight="600">Penalties</text>

    <rect x="620" y="808" width="100" height="16" rx="3" fill="#7f1d1d" opacity="0.6"/>
    <text x="670" y="820" text-anchor="middle" fill="#fca5a5" font-size="7.5">Stalling -0.05</text>
    <rect x="726" y="808" width="105" height="16" rx="3" fill="#7f1d1d" opacity="0.6"/>
    <text x="778" y="820" text-anchor="middle" fill="#fca5a5" font-size="7.5">Repeated Q -0.03</text>
    <rect x="837" y="808" width="115" height="16" rx="3" fill="#7f1d1d" opacity="0.6"/>
    <text x="894" y="820" text-anchor="middle" fill="#fca5a5" font-size="7.5">Regression -0.10</text>
    <rect x="958" y="808" width="125" height="16" rx="3" fill="#7f1d1d" opacity="0.6"/>
    <text x="1020" y="820" text-anchor="middle" fill="#fca5a5" font-size="7.5">Contradiction -0.05</text>

    <rect x="620" y="830" width="118" height="16" rx="3" fill="#7f1d1d" opacity="0.6"/>
    <text x="679" y="842" text-anchor="middle" fill="#fca5a5" font-size="7.5">Hallucination -0.05</text>
    <rect x="744" y="830" width="115" height="16" rx="3" fill="#7f1d1d" opacity="0.6"/>
    <text x="801" y="842" text-anchor="middle" fill="#fca5a5" font-size="7.5">Invalid action -0.10</text>
    <rect x="865" y="830" width="105" height="16" rx="3" fill="#991b1b" opacity="0.7"/>
    <text x="917" y="842" text-anchor="middle" fill="#fecaca" font-size="7.5">Timeout -0.20</text>
    <rect x="976" y="830" width="128" height="16" rx="3" fill="#991b1b" opacity="0.7"/>
    <text x="1040" y="842" text-anchor="middle" fill="#fecaca" font-size="7.5">No agreement -0.10</text>
    <text x="800" y="862" text-anchor="middle" fill="#94a3b8" font-size="7">Terminal penalties in bold boxes | Step penalties in regular boxes</text>

    <!-- Final result -->
    <rect x="1300" y="790" width="220" height="50" rx="8" fill="#10b981" opacity="0.2"/>
    <text x="1410" y="810" text-anchor="middle" fill="#6ee7b7" font-size="9">Result range</text>
    <text x="1410" y="830" text-anchor="middle" fill="#fff" font-size="14" font-weight="800">R in [-2, 11]</text>
  </g>

  <!-- Reward to Training arrow -->
  <path d="M360,875 L250,875 L250,900" stroke="#10b981" stroke-width="2" fill="none" marker-end="url(#arrowGreen)" opacity="0.6"/>
  <text x="280" y="892" fill="#6ee7b7" font-size="8">reward signal</text>

  <!-- ============================================== -->
  <!-- ROW 5: TRAINING | DEPLOYMENT | FRONTEND        -->
  <!-- ============================================== -->

  <!-- Training box -->
  <g filter="url(#shadow)">
    <rect x="60" y="900" width="450" height="120" rx="12" fill="#450a0a" stroke="#ef4444" stroke-width="1" opacity="0.9"/>
    <text x="100" y="922" fill="#fca5a5" font-size="10" font-weight="700" letter-spacing="2">RL TRAINING PIPELINE</text>

    <rect x="85" y="935" width="80" height="30" rx="6" fill="url(#trainGrad)" opacity="0.85"/>
    <text x="125" y="954" text-anchor="middle" fill="#fff" font-size="10" font-weight="600">Colab</text>
    <line x1="168" y1="950" x2="188" y2="950" stroke="#fca5a5" stroke-width="1.2" marker-end="url(#arrowRed)" opacity="0.6"/>
    <rect x="192" y="935" width="80" height="30" rx="6" fill="url(#trainGrad)" opacity="0.85"/>
    <text x="232" y="954" text-anchor="middle" fill="#fff" font-size="10" font-weight="600">Rollout</text>
    <line x1="275" y1="950" x2="295" y2="950" stroke="#fca5a5" stroke-width="1.2" marker-end="url(#arrowRed)" opacity="0.6"/>
    <rect x="299" y="935" width="68" height="30" rx="6" fill="url(#trainGrad)" opacity="0.85"/>
    <text x="333" y="954" text-anchor="middle" fill="#fff" font-size="10" font-weight="600">GRPO</text>
    <line x1="370" y1="950" x2="390" y2="950" stroke="#fca5a5" stroke-width="1.2" marker-end="url(#arrowRed)" opacity="0.6"/>
    <rect x="394" y="935" width="80" height="30" rx="6" fill="url(#trainGrad)" opacity="0.85"/>
    <text x="434" y="954" text-anchor="middle" fill="#fff" font-size="10" font-weight="600">Curves</text>

    <text x="285" y="985" text-anchor="middle" fill="#94a3b8" font-size="9">TRL / Unsloth | Qwen3-8B | H100 | LoRA adapters</text>
    <text x="285" y="1000" text-anchor="middle" fill="#64748b" font-size="8">Before/after eval | Reward + component curves</text>
  </g>

  <!-- Training to Scientist (updated weights) -->
  <path d="M140,900 L140,460 L512,460 L512,382" stroke="#ef4444" stroke-width="1.5" fill="none" marker-end="url(#arrowRed)" opacity="0.45" stroke-dasharray="6,4"/>
  <text x="200" y="455" fill="#fca5a5" font-size="8">updated weights</text>

  <!-- Deployment box -->
  <g filter="url(#shadow)">
    <rect x="530" y="900" width="440" height="120" rx="12" fill="#1e1b4b" stroke="#6366f1" stroke-width="1" opacity="0.9"/>
    <text x="570" y="922" fill="#a5b4fc" font-size="10" font-weight="700" letter-spacing="2">DEPLOYMENT &amp; SERVING</text>

    <rect x="555" y="935" width="80" height="30" rx="6" fill="url(#serveGrad)" opacity="0.85"/>
    <text x="595" y="954" text-anchor="middle" fill="#fff" font-size="10" font-weight="600">FastAPI</text>
    <line x1="638" y1="950" x2="658" y2="950" stroke="#a5b4fc" stroke-width="1.2" marker-end="url(#arrowWhite)" opacity="0.6"/>
    <rect x="662" y="935" width="72" height="30" rx="6" fill="url(#serveGrad)" opacity="0.85"/>
    <text x="698" y="954" text-anchor="middle" fill="#fff" font-size="10" font-weight="600">Docker</text>
    <line x1="737" y1="950" x2="757" y2="950" stroke="#a5b4fc" stroke-width="1.2" marker-end="url(#arrowWhite)" opacity="0.6"/>
    <rect x="761" y="935" width="86" height="30" rx="6" fill="url(#serveGrad)" opacity="0.85"/>
    <text x="804" y="954" text-anchor="middle" fill="#fff" font-size="10" font-weight="600">HF Space</text>

    <text x="750" y="985" text-anchor="middle" fill="#94a3b8" font-size="9">8 REST + 1 WebSocket | sdk:docker | port:7860</text>
    <text x="750" y="1000" text-anchor="middle" fill="#64748b" font-size="8">Session TTL 300s | CORS | Background cleanup</text>
  </g>

  <!-- Environment to Deployment -->
  <line x1="600" y1="505" x2="600" y2="520" stroke="transparent" fill="none"/>
  <line x1="700" y1="505" x2="700" y2="900" stroke="#94a3b8" stroke-width="1" marker-end="url(#arrowWhite)" opacity="0.2" stroke-dasharray="4,3"/>

  <!-- Frontend box -->
  <g filter="url(#shadow)">
    <rect x="990" y="900" width="510" height="120" rx="12" fill="#4a1942" stroke="#ec4899" stroke-width="1" opacity="0.9"/>
    <text x="1030" y="922" fill="#f9a8d4" font-size="10" font-weight="700" letter-spacing="2">FRONTEND</text>

    <rect x="1015" y="935" width="95" height="30" rx="6" fill="url(#uiGrad)" opacity="0.85"/>
    <text x="1062" y="954" text-anchor="middle" fill="#fff" font-size="10" font-weight="600">React+Vite</text>
    <rect x="1120" y="935" width="82" height="30" rx="6" fill="url(#uiGrad)" opacity="0.85"/>
    <text x="1161" y="954" text-anchor="middle" fill="#fff" font-size="10" font-weight="600">Three.js</text>
    <rect x="1212" y="935" width="82" height="30" rx="6" fill="url(#uiGrad)" opacity="0.85"/>
    <text x="1253" y="954" text-anchor="middle" fill="#fff" font-size="10" font-weight="600">Recharts</text>

    <!-- UI panel indicators -->
    <rect x="1310" y="930" width="170" height="14" rx="3" fill="#be185d" opacity="0.5"/>
    <text x="1395" y="941" text-anchor="middle" fill="#fce7f3" font-size="7.5">Dashboard | Episode | Replay</text>
    <rect x="1310" y="948" width="170" height="14" rx="3" fill="#be185d" opacity="0.5"/>
    <text x="1395" y="959" text-anchor="middle" fill="#fce7f3" font-size="7.5">Negotiation Log | Protocol</text>
    <rect x="1310" y="966" width="170" height="14" rx="3" fill="#be185d" opacity="0.5"/>
    <text x="1395" y="977" text-anchor="middle" fill="#fce7f3" font-size="7.5">Scores | Judge Audit | 3D</text>

    <text x="1245" y="1000" text-anchor="middle" fill="#94a3b8" font-size="9">Tailwind | shadcn/ui | Framer Motion | Lucide</text>
    <text x="1245" y="1012" text-anchor="middle" fill="#64748b" font-size="8">React 19 | TypeScript | XYFlow protocol timeline</text>
  </g>

  <!-- Deployment to Frontend arrow -->
  <line x1="970" y1="950" x2="986" y2="950" stroke="#94a3b8" stroke-width="1.2" marker-end="url(#arrowWhite)" opacity="0.5"/>
  <text x="978" y="942" text-anchor="middle" fill="#64748b" font-size="7">WS</text>

  <!-- ============================================== -->
  <!-- HACKATHON TRACKS                               -->
  <!-- ============================================== -->

  <text x="800" y="1060" text-anchor="middle" fill="#475569" font-size="9" font-weight="600" letter-spacing="2.5">OPENENV HACKATHON TRACKS</text>

  <g>
    <rect x="310" y="1070" width="150" height="28" rx="14" fill="#7c3aed" opacity="0.25" stroke="#8b5cf6" stroke-width="0.8"/>
    <text x="385" y="1088" text-anchor="middle" fill="#c4b5fd" font-size="10" font-weight="600">Multi-Agent</text>

    <rect x="480" y="1070" width="160" height="28" rx="14" fill="#2563eb" opacity="0.25" stroke="#3b82f6" stroke-width="0.8"/>
    <text x="560" y="1088" text-anchor="middle" fill="#93c5fd" font-size="10" font-weight="600">World Modeling</text>

    <rect x="660" y="1070" width="165" height="28" rx="14" fill="#0891b2" opacity="0.2" stroke="#06b6d4" stroke-width="0.8"/>
    <text x="742" y="1088" text-anchor="middle" fill="#67e8f9" font-size="10" font-weight="600">Long-Horizon Plan</text>

    <rect x="845" y="1070" width="170" height="28" rx="14" fill="#dc2626" opacity="0.2" stroke="#ef4444" stroke-width="0.8"/>
    <text x="930" y="1088" text-anchor="middle" fill="#fca5a5" font-size="10" font-weight="600">Self-Improvement</text>
  </g>

  <!-- ============================================== -->
  <!-- LEGEND                                         -->
  <!-- ============================================== -->

  <g transform="translate(60, 1125)">
    <text x="0" y="12" fill="#475569" font-size="9" font-weight="600" letter-spacing="2">LEGEND</text>

    <line x1="75" y1="9" x2="105" y2="9" stroke="#94a3b8" stroke-width="1.5" marker-end="url(#arrowWhite)"/>
    <text x="113" y="13" fill="#64748b" font-size="9">Data flow</text>

    <line x1="185" y1="9" x2="215" y2="9" stroke="#94a3b8" stroke-width="1.5" stroke-dasharray="5,3" marker-end="url(#arrowWhite)"/>
    <text x="223" y="13" fill="#64748b" font-size="9">Feedback loop</text>

    <rect x="320" y="3" width="12" height="12" rx="3" fill="url(#sciGrad)"/>
    <text x="338" y="13" fill="#64748b" font-size="9">Trainable</text>

    <rect x="400" y="3" width="12" height="12" rx="3" fill="url(#lmGrad)"/>
    <text x="418" y="13" fill="#64748b" font-size="9">Rule-based</text>

    <rect x="490" y="3" width="12" height="12" rx="3" fill="url(#judgeGrad)"/>
    <text x="508" y="13" fill="#64748b" font-size="9">Rubric scorer</text>

    <rect x="590" y="3" width="12" height="12" rx="3" fill="#059669"/>
    <text x="608" y="13" fill="#64748b" font-size="9">Scoring dim</text>

    <rect x="690" y="3" width="12" height="12" rx="3" fill="#1e293b" stroke="#475569" stroke-width="0.8" stroke-dasharray="3,2"/>
    <text x="708" y="13" fill="#64748b" font-size="9">Optional</text>

    <rect x="780" y="3" width="12" height="12" rx="3" fill="#7f1d1d"/>
    <text x="798" y="13" fill="#64748b" font-size="9">Penalty</text>

    <rect x="850" y="3" width="12" height="12" rx="3" fill="#047857"/>
    <text x="868" y="13" fill="#64748b" font-size="9">Bonus</text>
  </g>

  <!-- Tech stack badges -->
  <g transform="translate(60, 1155)">
    <text x="0" y="12" fill="#475569" font-size="9" font-weight="600" letter-spacing="2">STACK</text>
    <rect x="60" y="0" width="75" height="18" rx="9" fill="#334155" opacity="0.5"/>
    <text x="97" y="13" text-anchor="middle" fill="#94a3b8" font-size="8">Python 3.10+</text>
    <rect x="142" y="0" width="78" height="18" rx="9" fill="#334155" opacity="0.5"/>
    <text x="181" y="13" text-anchor="middle" fill="#94a3b8" font-size="8">Pydantic v2</text>
    <rect x="227" y="0" width="60" height="18" rx="9" fill="#334155" opacity="0.5"/>
    <text x="257" y="13" text-anchor="middle" fill="#94a3b8" font-size="8">FastAPI</text>
    <rect x="294" y="0" width="82" height="18" rx="9" fill="#334155" opacity="0.5"/>
    <text x="335" y="13" text-anchor="middle" fill="#94a3b8" font-size="8">OpenEnv 0.2.1</text>
    <rect x="383" y="0" width="56" height="18" rx="9" fill="#334155" opacity="0.5"/>
    <text x="411" y="13" text-anchor="middle" fill="#94a3b8" font-size="8">React 19</text>
    <rect x="446" y="0" width="75" height="18" rx="9" fill="#334155" opacity="0.5"/>
    <text x="483" y="13" text-anchor="middle" fill="#94a3b8" font-size="8">Tailwind CSS</text>
    <rect x="528" y="0" width="66" height="18" rx="9" fill="#334155" opacity="0.5"/>
    <text x="561" y="13" text-anchor="middle" fill="#94a3b8" font-size="8">TRL/GRPO</text>
    <rect x="601" y="0" width="60" height="18" rx="9" fill="#334155" opacity="0.5"/>
    <text x="631" y="13" text-anchor="middle" fill="#94a3b8" font-size="8">Unsloth</text>
    <rect x="668" y="0" width="55" height="18" rx="9" fill="#334155" opacity="0.5"/>
    <text x="695" y="13" text-anchor="middle" fill="#94a3b8" font-size="8">Docker</text>
    <rect x="730" y="0" width="72" height="18" rx="9" fill="#334155" opacity="0.5"/>
    <text x="766" y="13" text-anchor="middle" fill="#94a3b8" font-size="8">HF Spaces</text>
  </g>

  <!-- Watermark -->
  <text x="1540" y="1185" text-anchor="end" fill="#334155" font-size="8.5" opacity="0.5">ReplicaLab v2.0 Final | OpenEnv Hackathon 2026</text>
</svg>